# xmcd
# 
# Track frame offsets:
#     150
#     10105
#     20977
#     33770
#     47751
#     61220
#     71554
#     81362
#     90982
#     103630
#     118712
#     132221
#     144308
#     153644
#     165347
#     175833
#     186257
#     196348
#     208425
#     224607
#     233266
#     248502
#     260704
#     271657
#     281185
#     294741
#     305412
#     317429
#     327279
# 
# Disc length: 4466
# 
# Revision: 2
# Processed by: cddbd v1.5.2PL0 Copyright (c) Steve Scherf et al.
# Submitted via: fre:ac v1.0.17
# 
DISCID=a211701d
DTITLE=Slim Whitman - The Collection [Disc 1]
DYEAR=2005
DGENRE=Country
TTITLE0=Rose Marie
TTITLE1=Aura Lee
TTITLE2=Calypso
TTITLE3=China Doll
TTITLE4=Moonlight On The Colorado
TTITLE5=Diane
TTITLE6=Walk Through This World With Me
TTITLE7=The Angel Song
TTITLE8=Room Full Of Roses
TTITLE9=White Cliffs Of Dover
TTITLE10=Honeymoon Feelin'
TTITLE11=Carolina Moon
TTITLE12=Flower Of Love
TTITLE13=My Buddy
TTITLE14=Livin' On Lovin'
TTITLE15=Blueberry Hill
TTITLE16=There's A Rainbow In Every Teardrop
TTITLE17=Dear Heart
TTITLE18=Everything Leads Back To You
TTITLE19=Heaven Says Hello
TTITLE20=These Are My Mountains
TTITLE21=You've Still Got A Place In My Heart
TTITLE22=Maybe I'll Cry Over You
TTITLE23=A Broken Down Merry-Go-Round
TTITLE24=I'm A Fool
TTITLE25=Silver Spurs
TTITLE26=I Love You A Thousand Ways
TTITLE27=Poor Little Angeline
TTITLE28=Red Wing
EXTD=
EXTT0=
EXTT1=
EXTT2=
EXTT3=
EXTT4=
EXTT5=
EXTT6=
EXTT7=
EXTT8=
EXTT9=
EXTT10=
EXTT11=
EXTT12=
EXTT13=
EXTT14=
EXTT15=
EXTT16=
EXTT17=
EXTT18=
EXTT19=
EXTT20=
EXTT21=
EXTT22=
EXTT23=
EXTT24=
EXTT25=
EXTT26=
EXTT27=
EXTT28=
PLAYORDER=
